<?xml version="1.0" encoding="UTF-8" standalone="no"?>
<!DOCTYPE svg PUBLIC "-//W3C//DTD SVG 1.1//EN" "http://www.w3.org/Graphics/SVG/1.1/DTD/svg11.dtd">
<svg width="100%" height="100%" viewBox="0 0 650 666" version="1.1" xmlns="http://www.w3.org/2000/svg" xmlns:xlink="http://www.w3.org/1999/xlink" xml:space="preserve" xmlns:serif="http://www.serif.com/" style="fill-rule:evenodd;clip-rule:evenodd;stroke-linejoin:round;stroke-miterlimit:2;">
    <g transform="matrix(0.1,0,0,-0.1,-85.081401,729.607619)">
        <path d="M3330,7289C2646,7214 2044,6909 1576,6401C1167,5957 917,5389 859,4778C842,4592 852,4201 879,4037C958,3553 1157,3103 1457,2730C1753,2362 2175,2047 2595,1880C3153,1659 3819,1614 4381,1759C4707,1843 5060,2010 5298,2193L5351,2233L6123,1463C6982,606 6943,640 7075,640C7192,640 7276,694 7323,799C7350,861 7349,952 7320,1010C7305,1042 7074,1279 6527,1827L5757,2599L5827,2682C5998,2885 6106,3045 6208,3247C6396,3620 6483,3962 6497,4380C6516,4978 6355,5551 6031,6035C5577,6714 4860,7161 4040,7275C3903,7294 3456,7303 3330,7289ZM3860,6829C4026,6814 4178,6786 4315,6746C4950,6561 5474,6133 5779,5550C5897,5323 5972,5094 6017,4825C6044,4659 6042,4290 6012,4120C5969,3869 5915,3702 5805,3475C5450,2743 4751,2251 3934,2155C3337,2085 2704,2258 2213,2626C2043,2754 1821,2991 1691,3183C1333,3715 1211,4420 1366,5058C1441,5364 1568,5639 1750,5885C2238,6545 3043,6905 3860,6829Z" style="fill:rgb(215,218,224);fill-rule:nonzero;"/>
        <path d="M2806,5984C2437,5902 2197,5559 2239,5176C2259,4996 2326,4855 2450,4730C2644,4533 2900,4470 3167,4551C3400,4622 3603,4833 3667,5070C3690,5157 3690,5341 3667,5430C3600,5686 3401,5896 3155,5968C3051,5999 2902,6006 2806,5984Z" style="fill:rgb(215,218,224);fill-rule:nonzero;"/>
        <path d="M4465,5490C4394,5462 4346,5419 4313,5352C4285,5295 4285,5294 4280,5050C4276,4874 4271,4799 4262,4782C4244,4751 4192,4720 4158,4720L4130,4720L4130,4522L4164,4516C4202,4509 4244,4479 4263,4447C4271,4432 4277,4350 4280,4190C4285,3968 4287,3952 4309,3910C4362,3809 4438,3761 4562,3753L4640,3747L4640,3940L4613,3940C4578,3940 4526,3971 4508,4002C4499,4018 4494,4089 4490,4240C4485,4446 4484,4458 4460,4505C4443,4538 4418,4566 4387,4587L4339,4619L4367,4634C4403,4652 4443,4695 4466,4740C4482,4770 4485,4808 4490,5000C4493,5152 4499,5232 4507,5247C4528,5283 4571,5310 4606,5310L4640,5310L4640,5510L4578,5509C4541,5509 4494,5501 4465,5490Z" style="fill:rgb(215,218,224);fill-rule:nonzero;"/>
        <path d="M5370,5510L5370,5310L5403,5310C5444,5310 5478,5292 5504,5257C5523,5231 5525,5212 5530,5002C5535,4788 5536,4772 5559,4726C5574,4696 5599,4666 5626,4647L5668,4617L5627,4586C5602,4568 5574,4533 5558,4501C5530,4447 5530,4445 5530,4246C5530,4070 5528,4040 5512,4010C5491,3971 5440,3940 5398,3940L5370,3940L5370,3747L5448,3752C5576,3760 5659,3811 5711,3916C5733,3962 5735,3977 5740,4202C5746,4474 5748,4483 5833,4510L5880,4525L5880,4715L5833,4730C5748,4757 5746,4764 5740,5048C5735,5294 5735,5295 5707,5352C5657,5453 5559,5510 5435,5510L5370,5510Z" style="fill:rgb(215,218,224);fill-rule:nonzero;"/>
        <path d="M2382,4265C2057,4181 1820,3892 1820,3579C1820,3477 1836,3418 1886,3336C2081,3018 2489,2704 2905,2552C3116,2476 3365,2430 3573,2430C3849,2430 4008,2477 4065,2575L4091,2619L4088,3132C4084,3631 4083,3647 4061,3720C3979,3990 3760,4200 3486,4270C3412,4289 3376,4290 2941,4290C2482,4289 2474,4289 2382,4265Z" style="fill:rgb(215,218,224);fill-rule:nonzero;"/>
    </g>
</svg>
